<svg width="52" height="16" viewBox="0 0 52 16" fill="none" xmlns="http://www.w3.org/2000/svg">
<path d="M14.5912 15.8512L12.8646 12.9133L11.1976 15.8512H9.17089L11.762 11.4272L9.12326 7.31651H11.2285L12.9194 10.061L14.5317 7.31651H16.5489L13.9506 11.5594L16.6203 15.8512H14.5912Z" fill="#2B2649"/>
<path d="M23.172 12.95C23.172 14.8278 21.7955 15.9981 19.9927 15.9981C18.4042 15.9981 17.0658 15.0972 16.9348 13.1336H18.6543C18.7734 13.9856 19.4378 14.3578 20.1618 14.3578C21.062 14.3578 21.4526 13.7359 21.4526 12.9304C21.4526 12.1249 20.8477 11.5594 20.007 11.5594C19.7378 11.5439 19.4694 11.601 19.2283 11.7251C18.9873 11.8493 18.782 12.036 18.6328 12.2669H16.9848L17.554 7.31651H22.9601L22.7815 8.97645H18.9139L18.7591 10.6143C18.7591 10.6143 19.1663 10.1247 20.3976 10.1247C21.8789 10.1222 23.172 11.1456 23.172 12.95Z" fill="#2B2649"/>
<path d="M17.147 6.25655C16.2206 2.58657 13.3151 0.00607872 7.28271 0.00607872H0L0.988334 6.87842C1.73137 13.0775 4.0486 15.0728 8.12101 15.8073C8.13982 15.8127 8.15963 15.8132 8.17868 15.8088C8.19773 15.8045 8.21545 15.7953 8.23027 15.7823C8.24509 15.7692 8.25657 15.7526 8.26367 15.7339C8.27079 15.7152 8.27332 15.695 8.27105 15.6751C8.27113 15.6484 8.26347 15.6222 8.24905 15.6C8.23463 15.5778 8.2141 15.5605 8.19008 15.5502C5.42988 14.3555 5.11552 10.4382 4.5249 6.50873L4.06765 3.37492H8.22818C12.0601 3.37492 15.0203 3.31371 16.8922 6.35449C16.9051 6.37651 16.9232 6.3948 16.9449 6.40765C16.9665 6.42049 16.991 6.42747 17.016 6.42793C17.033 6.42795 17.0498 6.42443 17.0654 6.41761C17.0811 6.41078 17.0952 6.40079 17.107 6.38821C17.1188 6.37564 17.128 6.36075 17.134 6.34444C17.1401 6.32813 17.1429 6.31073 17.1422 6.29328C17.145 6.28123 17.1466 6.26893 17.147 6.25655Z" fill="#2B2649"/>
<path d="M28.7559 8.37907H25.898V7.31651H32.764V8.37907H29.9062V15.8512H28.7321L28.7559 8.37907Z" fill="#2B2649"/>
<path d="M38.2551 13.0201H33.1539C33.1813 13.2871 33.26 13.5458 33.3855 13.7811C33.5111 14.0165 33.6808 14.2239 33.885 14.3912C34.3257 14.7458 34.8737 14.9295 35.433 14.9102C35.7726 14.9239 36.111 14.861 36.4244 14.7261C36.7379 14.5912 37.0189 14.3875 37.2478 14.1292L37.8765 14.8857C37.5876 15.2289 37.2236 15.4966 36.8143 15.6667C36.3015 15.8663 35.7544 15.9555 35.2067 15.929C34.659 15.9025 34.1225 15.7607 33.6302 15.5125C33.1312 15.2472 32.7176 14.8391 32.4394 14.3373C32.153 13.8148 32.0075 13.2232 32.0179 12.6235C32.0104 12.0312 32.1515 11.4468 32.4275 10.9269C32.6896 10.4352 33.0796 10.0283 33.554 9.75167C34.0481 9.46653 34.6069 9.32122 35.1734 9.33057C35.7363 9.32032 36.2915 9.46576 36.781 9.75167C37.2484 10.0294 37.6305 10.4366 37.8836 10.9269C38.1555 11.4612 38.2922 12.0573 38.2813 12.6602C38.2793 12.7806 38.2706 12.9008 38.2551 13.0201ZM33.8136 10.8387C33.4422 11.186 33.211 11.6639 33.1658 12.1779H37.2001C37.1522 11.6661 36.9214 11.1907 36.5523 10.8436C36.1698 10.5101 35.6845 10.327 35.183 10.327C34.6814 10.327 34.1961 10.5101 33.8136 10.8436V10.8387Z" fill="#2B2649"/>
<path d="M40.6688 15.5003C40.1729 15.2296 39.7604 14.8217 39.478 14.3227C39.1985 13.8021 39.0518 13.2171 39.0518 12.6224C39.0518 12.0277 39.1985 11.4427 39.478 10.9221C39.7601 10.4247 40.1728 10.0191 40.6688 9.75177C41.1964 9.46435 41.7865 9.31945 42.3835 9.33067C42.9117 9.32111 43.4344 9.44201 43.9077 9.68322C44.3453 9.9114 44.7068 10.2686 44.946 10.7091L44.0792 11.282C43.8973 10.988 43.6435 10.7482 43.3433 10.5866C43.0422 10.43 42.709 10.3502 42.3716 10.3541C41.9843 10.3486 41.6022 10.4455 41.2618 10.6356C40.9334 10.8188 40.6637 11.0961 40.4854 11.4337C40.3022 11.8039 40.2067 12.2132 40.2067 12.6285C40.2067 13.0438 40.3022 13.4532 40.4854 13.8233C40.6617 14.1599 40.9288 14.4371 41.2547 14.6214C41.5946 14.8125 41.977 14.9095 42.3645 14.903C42.7028 14.903 43.0361 14.819 43.3361 14.6581C43.6372 14.4978 43.8913 14.2578 44.072 13.9628L44.9389 14.5259C44.6984 14.966 44.3373 15.3236 43.9005 15.5542C43.4333 15.7995 42.9152 15.9246 42.3906 15.919C41.7913 15.9333 41.1984 15.7892 40.6688 15.5003Z" fill="#2B2649"/>
<path d="M51.2862 10.0472C51.7625 10.5369 52.0006 11.22 52.0006 12.1405V15.857H50.8622V12.2727C50.8622 11.6484 50.7146 11.1759 50.4217 10.8601C50.258 10.692 50.0615 10.5614 49.8451 10.477C49.6288 10.3926 49.3976 10.3563 49.1666 10.3704C48.8992 10.3556 48.6318 10.3973 48.3807 10.4929C48.1296 10.5885 47.9002 10.7359 47.7067 10.9262C47.5193 11.1416 47.3755 11.3933 47.2839 11.6666C47.1923 11.9398 47.1547 12.2292 47.1733 12.5176V15.857H46.0349V6.81061H47.1733V10.3117C47.418 9.99414 47.7377 9.74634 48.102 9.59186C48.5097 9.41992 48.9476 9.33657 49.3881 9.34704C49.7339 9.32768 50.08 9.37966 50.406 9.49992C50.7319 9.62017 51.0312 9.80627 51.2862 10.0472Z" fill="#2B2649"/>
</svg>
